{
 "cells": [
  {
   "cell_type": "markdown",
   "metadata": {
    "Collapsed": "false"
   },
   "source": [
    "## We're going to use ffmpeg for this, lets break apart the video into\n",
    "\n",
    "This file contains all of the code to break apart the videos in\n"
   ]
  },
  {
   "cell_type": "code",
   "execution_count": 2,
   "metadata": {
    "Collapsed": "false"
   },
   "outputs": [
    {
     "name": "stdout",
     "output_type": "stream",
     "text": [
      "ffmpeg version 4.1.3 Copyright (c) 2000-2019 the FFmpeg developers\n",
      "  built with gcc 7.3.0 (crosstool-NG 1.23.0.449-a04d0)\n",
      "  configuration: --prefix=/opt/conda --cc=/home/conda/feedstock_root/build_artifacts/ffmpeg_1556785800657/_build_env/bin/x86_64-conda_cos6-linux-gnu-cc --disable-doc --disable-openssl --enable-avresample --enable-gnutls --enable-gpl --enable-hardcoded-tables --enable-libfreetype --enable-libopenh264 --enable-libx264 --enable-pic --enable-pthreads --enable-shared --enable-static --enable-version3 --enable-zlib --enable-libmp3lame\n",
      "  libavutil      56. 22.100 / 56. 22.100\n",
      "  libavcodec     58. 35.100 / 58. 35.100\n",
      "  libavformat    58. 20.100 / 58. 20.100\n",
      "  libavdevice    58.  5.100 / 58.  5.100\n",
      "  libavfilter     7. 40.101 /  7. 40.101\n",
      "  libavresample   4.  0.  0 /  4.  0.  0\n",
      "  libswscale      5.  3.100 /  5.  3.100\n",
      "  libswresample   3.  3.100 /  3.  3.100\n",
      "  libpostproc    55.  3.100 / 55.  3.100\n",
      "Input #0, mov,mp4,m4a,3gp,3g2,mj2, from 'errroslon_generated.mp4':\n",
      "  Metadata:\n",
      "    major_brand     : isom\n",
      "    minor_version   : 512\n",
      "    compatible_brands: isomiso2avc1mp41\n",
      "    encoder         : Lavf57.83.100\n",
      "  Duration: 00:00:29.60, start: 0.000000, bitrate: 24 kb/s\n",
      "    Stream #0:0(und): Video: h264 (High) (avc1 / 0x31637661), yuv420p, 256x256, 23 kb/s, 10 fps, 10 tbr, 10240 tbn, 20 tbc (default)\n",
      "    Metadata:\n",
      "      handler_name    : VideoHandler\n",
      "Stream mapping:\n",
      "  Stream #0:0 -> #0:0 (h264 (native) -> h264 (libx264))\n",
      "Press [q] to stop, [?] for help\n",
      "\u001b[1;36m[libx264 @ 0x5630aa9e2ec0] \u001b[0musing cpu capabilities: MMX2 SSE2Fast SSSE3 SSE4.2 AVX FMA3 BMI2 AVX2\n",
      "\u001b[1;36m[libx264 @ 0x5630aa9e2ec0] \u001b[0mprofile High, level 1.2\n",
      "\u001b[1;36m[libx264 @ 0x5630aa9e2ec0] \u001b[0m264 - core 152 - H.264/MPEG-4 AVC codec - Copyleft 2003-2017 - http://www.videolan.org/x264.html - options: cabac=1 ref=3 deblock=1:0:0 analyse=0x3:0x113 me=hex subme=7 psy=1 psy_rd=1.00:0.00 mixed_ref=1 me_range=16 chroma_me=1 trellis=1 8x8dct=1 cqm=0 deadzone=21,11 fast_pskip=1 chroma_qp_offset=-2 threads=8 lookahead_threads=1 sliced_threads=0 nr=0 decimate=1 interlaced=0 bluray_compat=0 constrained_intra=0 bframes=3 b_pyramid=2 b_adapt=1 b_bias=0 direct=1 weightb=1 open_gop=0 weightp=2 keyint=250 keyint_min=10 scenecut=40 intra_refresh=0 rc_lookahead=40 rc=crf mbtree=1 crf=23.0 qcomp=0.60 qpmin=0 qpmax=69 qpstep=4 ip_ratio=1.40 aq=1:1.00\n",
      "Output #0, mp4, to 'video_pipeline.mp4':\n",
      "  Metadata:\n",
      "    major_brand     : isom\n",
      "    minor_version   : 512\n",
      "    compatible_brands: isomiso2avc1mp41\n",
      "    encoder         : Lavf58.20.100\n",
      "    Stream #0:0(und): Video: h264 (libx264) (avc1 / 0x31637661), yuv420p, 256x256, q=-1--1, 10 fps, 10240 tbn, 10 tbc (default)\n",
      "    Metadata:\n",
      "      handler_name    : VideoHandler\n",
      "      encoder         : Lavc58.35.100 libx264\n",
      "    Side data:\n",
      "      cpb: bitrate max/min/avg: 0/0/0 buffer size: 0 vbv_delay: -1\n",
      "frame=  150 fps=0.0 q=-1.0 Lsize=      63kB time=00:00:14.70 bitrate=  35.2kbits/s dup=0 drop=146 speed=93.4x    \n",
      "video:61kB audio:0kB subtitle:0kB other streams:0kB global headers:0kB muxing overhead: 4.229729%\n",
      "\u001b[1;36m[libx264 @ 0x5630aa9e2ec0] \u001b[0mframe I:1     Avg QP:15.08  size:  3308\n",
      "\u001b[1;36m[libx264 @ 0x5630aa9e2ec0] \u001b[0mframe P:38    Avg QP:19.14  size:  1026\n",
      "\u001b[1;36m[libx264 @ 0x5630aa9e2ec0] \u001b[0mframe B:111   Avg QP:22.31  size:   172\n",
      "\u001b[1;36m[libx264 @ 0x5630aa9e2ec0] \u001b[0mconsecutive B-frames:  0.7%  1.3%  2.0% 96.0%\n",
      "\u001b[1;36m[libx264 @ 0x5630aa9e2ec0] \u001b[0mmb I  I16..4:  2.3% 80.1% 17.6%\n",
      "\u001b[1;36m[libx264 @ 0x5630aa9e2ec0] \u001b[0mmb P  I16..4:  1.3%  2.4%  0.1%  P16..4: 20.0% 13.7%  8.4%  0.0%  0.0%    skip:54.1%\n",
      "\u001b[1;36m[libx264 @ 0x5630aa9e2ec0] \u001b[0mmb B  I16..4:  0.0%  0.2%  0.0%  B16..8: 25.7%  3.4%  0.4%  direct: 0.6%  skip:69.7%  L0:42.3% L1:50.9% BI: 6.8%\n",
      "\u001b[1;36m[libx264 @ 0x5630aa9e2ec0] \u001b[0m8x8 transform intra:71.7% inter:60.8%\n",
      "\u001b[1;36m[libx264 @ 0x5630aa9e2ec0] \u001b[0mcoded y,uvDC,uvAC intra: 14.8% 24.8% 19.9% inter: 5.4% 4.7% 0.3%\n",
      "\u001b[1;36m[libx264 @ 0x5630aa9e2ec0] \u001b[0mi16 v,h,dc,p: 72%  9% 16%  3%\n",
      "\u001b[1;36m[libx264 @ 0x5630aa9e2ec0] \u001b[0mi8 v,h,dc,ddl,ddr,vr,hd,vl,hu: 32%  8% 50%  2%  2%  2%  1%  2%  1%\n",
      "\u001b[1;36m[libx264 @ 0x5630aa9e2ec0] \u001b[0mi4 v,h,dc,ddl,ddr,vr,hd,vl,hu: 45%  7% 16%  4%  8%  8%  3%  5%  3%\n",
      "\u001b[1;36m[libx264 @ 0x5630aa9e2ec0] \u001b[0mi8c dc,h,v,p: 76%  5% 17%  2%\n",
      "\u001b[1;36m[libx264 @ 0x5630aa9e2ec0] \u001b[0mWeighted P-Frames: Y:7.9% UV:0.0%\n",
      "\u001b[1;36m[libx264 @ 0x5630aa9e2ec0] \u001b[0mref P L0: 57.9% 14.3% 19.1%  7.7%  0.9%\n",
      "\u001b[1;36m[libx264 @ 0x5630aa9e2ec0] \u001b[0mref B L0: 86.1% 11.1%  2.8%\n",
      "\u001b[1;36m[libx264 @ 0x5630aa9e2ec0] \u001b[0mref B L1: 95.4%  4.6%\n",
      "\u001b[1;36m[libx264 @ 0x5630aa9e2ec0] \u001b[0mkb/s:32.76\n"
     ]
    }
   ],
   "source": [
    "\n",
    "# lets clone it first so we dont have to worry about changin the file\n",
    "!ffmpeg -i errroslon_generated.mp4 -filter:v \"setpts=0.5*PTS\" video_pipeline.mp4 -y\n"
   ]
  },
  {
   "cell_type": "code",
   "execution_count": 3,
   "metadata": {
    "Collapsed": "false"
   },
   "outputs": [
    {
     "name": "stdout",
     "output_type": "stream",
     "text": [
      "ffmpeg version 4.1.3 Copyright (c) 2000-2019 the FFmpeg developers\n",
      "  built with gcc 7.3.0 (crosstool-NG 1.23.0.449-a04d0)\n",
      "  configuration: --prefix=/opt/conda --cc=/home/conda/feedstock_root/build_artifacts/ffmpeg_1556785800657/_build_env/bin/x86_64-conda_cos6-linux-gnu-cc --disable-doc --disable-openssl --enable-avresample --enable-gnutls --enable-gpl --enable-hardcoded-tables --enable-libfreetype --enable-libopenh264 --enable-libx264 --enable-pic --enable-pthreads --enable-shared --enable-static --enable-version3 --enable-zlib --enable-libmp3lame\n",
      "  libavutil      56. 22.100 / 56. 22.100\n",
      "  libavcodec     58. 35.100 / 58. 35.100\n",
      "  libavformat    58. 20.100 / 58. 20.100\n",
      "  libavdevice    58.  5.100 / 58.  5.100\n",
      "  libavfilter     7. 40.101 /  7. 40.101\n",
      "  libavresample   4.  0.  0 /  4.  0.  0\n",
      "  libswscale      5.  3.100 /  5.  3.100\n",
      "  libswresample   3.  3.100 /  3.  3.100\n",
      "  libpostproc    55.  3.100 / 55.  3.100\n",
      "Input #0, mov,mp4,m4a,3gp,3g2,mj2, from 'video_pipeline.mp4':\n",
      "  Metadata:\n",
      "    major_brand     : isom\n",
      "    minor_version   : 512\n",
      "    compatible_brands: isomiso2avc1mp41\n",
      "    encoder         : Lavf58.20.100\n",
      "  Duration: 00:00:15.00, start: 0.000000, bitrate: 34 kb/s\n",
      "    Stream #0:0(und): Video: h264 (High) (avc1 / 0x31637661), yuv420p, 256x256, 33 kb/s, 10 fps, 10 tbr, 10240 tbn, 20 tbc (default)\n",
      "    Metadata:\n",
      "      handler_name    : VideoHandler\n",
      "Stream mapping:\n",
      "  Stream #0:0 -> #0:0 (h264 (native) -> h264 (libx264))\n",
      "Press [q] to stop, [?] for help\n",
      "\u001b[1;36m[libx264 @ 0x561560641b80] \u001b[0musing cpu capabilities: MMX2 SSE2Fast SSSE3 SSE4.2 AVX FMA3 BMI2 AVX2\n",
      "\u001b[1;36m[libx264 @ 0x561560641b80] \u001b[0mprofile High, level 1.2\n",
      "\u001b[1;36m[libx264 @ 0x561560641b80] \u001b[0m264 - core 152 - H.264/MPEG-4 AVC codec - Copyleft 2003-2017 - http://www.videolan.org/x264.html - options: cabac=1 ref=3 deblock=1:0:0 analyse=0x3:0x113 me=hex subme=7 psy=1 psy_rd=1.00:0.00 mixed_ref=1 me_range=16 chroma_me=1 trellis=1 8x8dct=1 cqm=0 deadzone=21,11 fast_pskip=1 chroma_qp_offset=-2 threads=8 lookahead_threads=1 sliced_threads=0 nr=0 decimate=1 interlaced=0 bluray_compat=0 constrained_intra=0 bframes=3 b_pyramid=2 b_adapt=1 b_bias=0 direct=1 weightb=1 open_gop=0 weightp=2 keyint=250 keyint_min=10 scenecut=40 intra_refresh=0 rc_lookahead=40 rc=crf mbtree=1 crf=23.0 qcomp=0.60 qpmin=0 qpmax=69 qpstep=4 ip_ratio=1.40 aq=1:1.00\n",
      "Output #0, mp4, to 'part_1_whole.mp4':\n",
      "  Metadata:\n",
      "    major_brand     : isom\n",
      "    minor_version   : 512\n",
      "    compatible_brands: isomiso2avc1mp41\n",
      "    encoder         : Lavf58.20.100\n",
      "    Stream #0:0(und): Video: h264 (libx264) (avc1 / 0x31637661), yuv420p, 256x256, q=-1--1, 10 fps, 10240 tbn, 10 tbc (default)\n",
      "    Metadata:\n",
      "      handler_name    : VideoHandler\n",
      "      encoder         : Lavc58.35.100 libx264\n",
      "    Side data:\n",
      "      cpb: bitrate max/min/avg: 0/0/0 buffer size: 0 vbv_delay: -1\n",
      "frame=   50 fps=0.0 q=-1.0 Lsize=      24kB time=00:00:04.70 bitrate=  41.5kbits/s speed=  68x    \n",
      "video:22kB audio:0kB subtitle:0kB other streams:0kB global headers:0kB muxing overhead: 6.258996%\n",
      "\u001b[1;36m[libx264 @ 0x561560641b80] \u001b[0mframe I:1     Avg QP:14.87  size:  3305\n",
      "\u001b[1;36m[libx264 @ 0x561560641b80] \u001b[0mframe P:13    Avg QP:19.31  size:   945\n",
      "\u001b[1;36m[libx264 @ 0x561560641b80] \u001b[0mframe B:36    Avg QP:21.82  size:   185\n",
      "\u001b[1;36m[libx264 @ 0x561560641b80] \u001b[0mconsecutive B-frames:  4.0%  0.0%  0.0% 96.0%\n",
      "\u001b[1;36m[libx264 @ 0x561560641b80] \u001b[0mmb I  I16..4:  3.9% 78.5% 17.6%\n",
      "\u001b[1;36m[libx264 @ 0x561560641b80] \u001b[0mmb P  I16..4:  1.5%  4.8%  0.1%  P16..4: 22.1% 13.5%  7.6%  0.0%  0.0%    skip:50.4%\n",
      "\u001b[1;36m[libx264 @ 0x561560641b80] \u001b[0mmb B  I16..4:  0.1%  0.1%  0.0%  B16..8: 26.6%  3.8%  0.5%  direct: 1.1%  skip:67.9%  L0:42.0% L1:50.8% BI: 7.2%\n",
      "\u001b[1;36m[libx264 @ 0x561560641b80] \u001b[0m8x8 transform intra:76.4% inter:62.6%\n",
      "\u001b[1;36m[libx264 @ 0x561560641b80] \u001b[0mcoded y,uvDC,uvAC intra: 18.8% 28.8% 22.6% inter: 5.0% 4.8% 0.2%\n",
      "\u001b[1;36m[libx264 @ 0x561560641b80] \u001b[0mi16 v,h,dc,p: 68% 12% 18%  2%\n",
      "\u001b[1;36m[libx264 @ 0x561560641b80] \u001b[0mi8 v,h,dc,ddl,ddr,vr,hd,vl,hu: 41% 10% 38%  2%  2%  3%  1%  2%  1%\n",
      "\u001b[1;36m[libx264 @ 0x561560641b80] \u001b[0mi4 v,h,dc,ddl,ddr,vr,hd,vl,hu: 50%  8%  9%  5%  8%  9%  3%  5%  3%\n",
      "\u001b[1;36m[libx264 @ 0x561560641b80] \u001b[0mi8c dc,h,v,p: 75%  5% 18%  2%\n",
      "\u001b[1;36m[libx264 @ 0x561560641b80] \u001b[0mWeighted P-Frames: Y:0.0% UV:0.0%\n",
      "\u001b[1;36m[libx264 @ 0x561560641b80] \u001b[0mref P L0: 64.1% 13.7% 16.5%  5.7%\n",
      "\u001b[1;36m[libx264 @ 0x561560641b80] \u001b[0mref B L0: 90.2%  8.3%  1.5%\n",
      "\u001b[1;36m[libx264 @ 0x561560641b80] \u001b[0mref B L1: 96.9%  3.1%\n",
      "\u001b[1;36m[libx264 @ 0x561560641b80] \u001b[0mkb/s:35.60\n"
     ]
    }
   ],
   "source": [
    "# lets get three different videos\n",
    "# part 1\n",
    "!ffmpeg -i   video_pipeline.mp4 -ss 00:00:00 -t 00:00:05 -async 1 part_1_whole.mp4 -y"
   ]
  },
  {
   "cell_type": "code",
   "execution_count": 4,
   "metadata": {
    "Collapsed": "false"
   },
   "outputs": [
    {
     "name": "stdout",
     "output_type": "stream",
     "text": [
      "ffmpeg version 4.1.3 Copyright (c) 2000-2019 the FFmpeg developers\n",
      "  built with gcc 7.3.0 (crosstool-NG 1.23.0.449-a04d0)\n",
      "  configuration: --prefix=/opt/conda --cc=/home/conda/feedstock_root/build_artifacts/ffmpeg_1556785800657/_build_env/bin/x86_64-conda_cos6-linux-gnu-cc --disable-doc --disable-openssl --enable-avresample --enable-gnutls --enable-gpl --enable-hardcoded-tables --enable-libfreetype --enable-libopenh264 --enable-libx264 --enable-pic --enable-pthreads --enable-shared --enable-static --enable-version3 --enable-zlib --enable-libmp3lame\n",
      "  libavutil      56. 22.100 / 56. 22.100\n",
      "  libavcodec     58. 35.100 / 58. 35.100\n",
      "  libavformat    58. 20.100 / 58. 20.100\n",
      "  libavdevice    58.  5.100 / 58.  5.100\n",
      "  libavfilter     7. 40.101 /  7. 40.101\n",
      "  libavresample   4.  0.  0 /  4.  0.  0\n",
      "  libswscale      5.  3.100 /  5.  3.100\n",
      "  libswresample   3.  3.100 /  3.  3.100\n",
      "  libpostproc    55.  3.100 / 55.  3.100\n",
      "Input #0, mov,mp4,m4a,3gp,3g2,mj2, from 'video_pipeline.mp4':\n",
      "  Metadata:\n",
      "    major_brand     : isom\n",
      "    minor_version   : 512\n",
      "    compatible_brands: isomiso2avc1mp41\n",
      "    encoder         : Lavf58.20.100\n",
      "  Duration: 00:00:15.00, start: 0.000000, bitrate: 34 kb/s\n",
      "    Stream #0:0(und): Video: h264 (High) (avc1 / 0x31637661), yuv420p, 256x256, 33 kb/s, 10 fps, 10 tbr, 10240 tbn, 20 tbc (default)\n",
      "    Metadata:\n",
      "      handler_name    : VideoHandler\n",
      "Stream mapping:\n",
      "  Stream #0:0 -> #0:0 (h264 (native) -> h264 (libx264))\n",
      "Press [q] to stop, [?] for help\n",
      "\u001b[1;36m[libx264 @ 0x564cc80dfb80] \u001b[0musing cpu capabilities: MMX2 SSE2Fast SSSE3 SSE4.2 AVX FMA3 BMI2 AVX2\n",
      "\u001b[1;36m[libx264 @ 0x564cc80dfb80] \u001b[0mprofile High, level 1.2\n",
      "\u001b[1;36m[libx264 @ 0x564cc80dfb80] \u001b[0m264 - core 152 - H.264/MPEG-4 AVC codec - Copyleft 2003-2017 - http://www.videolan.org/x264.html - options: cabac=1 ref=3 deblock=1:0:0 analyse=0x3:0x113 me=hex subme=7 psy=1 psy_rd=1.00:0.00 mixed_ref=1 me_range=16 chroma_me=1 trellis=1 8x8dct=1 cqm=0 deadzone=21,11 fast_pskip=1 chroma_qp_offset=-2 threads=8 lookahead_threads=1 sliced_threads=0 nr=0 decimate=1 interlaced=0 bluray_compat=0 constrained_intra=0 bframes=3 b_pyramid=2 b_adapt=1 b_bias=0 direct=1 weightb=1 open_gop=0 weightp=2 keyint=250 keyint_min=10 scenecut=40 intra_refresh=0 rc_lookahead=40 rc=crf mbtree=1 crf=23.0 qcomp=0.60 qpmin=0 qpmax=69 qpstep=4 ip_ratio=1.40 aq=1:1.00\n",
      "Output #0, mp4, to 'part_2_whole.mp4':\n",
      "  Metadata:\n",
      "    major_brand     : isom\n",
      "    minor_version   : 512\n",
      "    compatible_brands: isomiso2avc1mp41\n",
      "    encoder         : Lavf58.20.100\n",
      "    Stream #0:0(und): Video: h264 (libx264) (avc1 / 0x31637661), yuv420p, 256x256, q=-1--1, 10 fps, 10240 tbn, 10 tbc (default)\n",
      "    Metadata:\n",
      "      handler_name    : VideoHandler\n",
      "      encoder         : Lavc58.35.100 libx264\n",
      "    Side data:\n",
      "      cpb: bitrate max/min/avg: 0/0/0 buffer size: 0 vbv_delay: -1\n",
      "frame=   50 fps=0.0 q=-1.0 Lsize=      21kB time=00:00:04.70 bitrate=  37.5kbits/s speed=65.9x    \n",
      "video:20kB audio:0kB subtitle:0kB other streams:0kB global headers:0kB muxing overhead: 6.934927%\n",
      "\u001b[1;36m[libx264 @ 0x564cc80dfb80] \u001b[0mframe I:1     Avg QP:18.31  size:  3337\n",
      "\u001b[1;36m[libx264 @ 0x564cc80dfb80] \u001b[0mframe P:13    Avg QP:20.32  size:   848\n",
      "\u001b[1;36m[libx264 @ 0x564cc80dfb80] \u001b[0mframe B:36    Avg QP:21.37  size:   154\n",
      "\u001b[1;36m[libx264 @ 0x564cc80dfb80] \u001b[0mconsecutive B-frames:  2.0%  4.0%  6.0% 88.0%\n",
      "\u001b[1;36m[libx264 @ 0x564cc80dfb80] \u001b[0mmb I  I16..4:  2.7% 78.5% 18.8%\n",
      "\u001b[1;36m[libx264 @ 0x564cc80dfb80] \u001b[0mmb P  I16..4:  0.7%  1.4%  0.1%  P16..4: 21.7% 13.3%  5.6%  0.0%  0.0%    skip:57.2%\n",
      "\u001b[1;36m[libx264 @ 0x564cc80dfb80] \u001b[0mmb B  I16..4:  0.0%  0.1%  0.0%  B16..8: 25.0%  2.9%  0.3%  direct: 0.2%  skip:71.5%  L0:41.0% L1:53.8% BI: 5.2%\n",
      "\u001b[1;36m[libx264 @ 0x564cc80dfb80] \u001b[0m8x8 transform intra:75.6% inter:67.3%\n",
      "\u001b[1;36m[libx264 @ 0x564cc80dfb80] \u001b[0mcoded y,uvDC,uvAC intra: 26.7% 34.0% 28.5% inter: 4.7% 4.6% 0.1%\n",
      "\u001b[1;36m[libx264 @ 0x564cc80dfb80] \u001b[0mi16 v,h,dc,p: 62%  9% 22%  6%\n",
      "\u001b[1;36m[libx264 @ 0x564cc80dfb80] \u001b[0mi8 v,h,dc,ddl,ddr,vr,hd,vl,hu: 50%  9% 26%  3%  3%  2%  2%  2%  2%\n",
      "\u001b[1;36m[libx264 @ 0x564cc80dfb80] \u001b[0mi4 v,h,dc,ddl,ddr,vr,hd,vl,hu: 46%  6% 15%  6%  7%  8%  3%  6%  3%\n",
      "\u001b[1;36m[libx264 @ 0x564cc80dfb80] \u001b[0mi8c dc,h,v,p: 73%  5% 18%  4%\n",
      "\u001b[1;36m[libx264 @ 0x564cc80dfb80] \u001b[0mWeighted P-Frames: Y:0.0% UV:0.0%\n",
      "\u001b[1;36m[libx264 @ 0x564cc80dfb80] \u001b[0mref P L0: 59.1% 11.0% 20.6%  9.4%\n",
      "\u001b[1;36m[libx264 @ 0x564cc80dfb80] \u001b[0mref B L0: 83.6% 12.3%  4.0%\n",
      "\u001b[1;36m[libx264 @ 0x564cc80dfb80] \u001b[0mref B L1: 97.3%  2.7%\n",
      "\u001b[1;36m[libx264 @ 0x564cc80dfb80] \u001b[0mkb/s:31.84\n"
     ]
    }
   ],
   "source": [
    "# part 2\n",
    "!ffmpeg -i video_pipeline.mp4 -ss 00:00:05 -to 00:00:10 -async 1 part_2_whole.mp4 -y\n",
    "!ffmpeg -i part_2_whole.mp4 -vf \"rotate=PI:bilinear=0,format=yuv420p\" -metadata:s:v rotate=0 -codec:v libx264 -codec:a -async 1 part_2_rotated.mp4\n",
    "!ffmpeg -i part_2_rotated.mp4 -vf hue=s=0  -async 1 part_2_final.mp4"
   ]
  },
  {
   "cell_type": "code",
   "execution_count": 5,
   "metadata": {
    "Collapsed": "false"
   },
   "outputs": [
    {
     "name": "stdout",
     "output_type": "stream",
     "text": [
      "ffmpeg version 4.1.3 Copyright (c) 2000-2019 the FFmpeg developers\n",
      "  built with gcc 7.3.0 (crosstool-NG 1.23.0.449-a04d0)\n",
      "  configuration: --prefix=/opt/conda --cc=/home/conda/feedstock_root/build_artifacts/ffmpeg_1556785800657/_build_env/bin/x86_64-conda_cos6-linux-gnu-cc --disable-doc --disable-openssl --enable-avresample --enable-gnutls --enable-gpl --enable-hardcoded-tables --enable-libfreetype --enable-libopenh264 --enable-libx264 --enable-pic --enable-pthreads --enable-shared --enable-static --enable-version3 --enable-zlib --enable-libmp3lame\n",
      "  libavutil      56. 22.100 / 56. 22.100\n",
      "  libavcodec     58. 35.100 / 58. 35.100\n",
      "  libavformat    58. 20.100 / 58. 20.100\n",
      "  libavdevice    58.  5.100 / 58.  5.100\n",
      "  libavfilter     7. 40.101 /  7. 40.101\n",
      "  libavresample   4.  0.  0 /  4.  0.  0\n",
      "  libswscale      5.  3.100 /  5.  3.100\n",
      "  libswresample   3.  3.100 /  3.  3.100\n",
      "  libpostproc    55.  3.100 / 55.  3.100\n",
      "Input #0, mov,mp4,m4a,3gp,3g2,mj2, from 'video_pipeline.mp4':\n",
      "  Metadata:\n",
      "    major_brand     : isom\n",
      "    minor_version   : 512\n",
      "    compatible_brands: isomiso2avc1mp41\n",
      "    encoder         : Lavf58.20.100\n",
      "  Duration: 00:00:15.00, start: 0.000000, bitrate: 34 kb/s\n",
      "    Stream #0:0(und): Video: h264 (High) (avc1 / 0x31637661), yuv420p, 256x256, 33 kb/s, 10 fps, 10 tbr, 10240 tbn, 20 tbc (default)\n",
      "    Metadata:\n",
      "      handler_name    : VideoHandler\n",
      "Stream mapping:\n",
      "  Stream #0:0 -> #0:0 (h264 (native) -> h264 (libx264))\n",
      "Press [q] to stop, [?] for help\n",
      "\u001b[1;36m[libx264 @ 0x55e57eb76b80] \u001b[0musing cpu capabilities: MMX2 SSE2Fast SSSE3 SSE4.2 AVX FMA3 BMI2 AVX2\n",
      "\u001b[1;36m[libx264 @ 0x55e57eb76b80] \u001b[0mprofile High, level 1.2\n",
      "\u001b[1;36m[libx264 @ 0x55e57eb76b80] \u001b[0m264 - core 152 - H.264/MPEG-4 AVC codec - Copyleft 2003-2017 - http://www.videolan.org/x264.html - options: cabac=1 ref=3 deblock=1:0:0 analyse=0x3:0x113 me=hex subme=7 psy=1 psy_rd=1.00:0.00 mixed_ref=1 me_range=16 chroma_me=1 trellis=1 8x8dct=1 cqm=0 deadzone=21,11 fast_pskip=1 chroma_qp_offset=-2 threads=8 lookahead_threads=1 sliced_threads=0 nr=0 decimate=1 interlaced=0 bluray_compat=0 constrained_intra=0 bframes=3 b_pyramid=2 b_adapt=1 b_bias=0 direct=1 weightb=1 open_gop=0 weightp=2 keyint=250 keyint_min=10 scenecut=40 intra_refresh=0 rc_lookahead=40 rc=crf mbtree=1 crf=23.0 qcomp=0.60 qpmin=0 qpmax=69 qpstep=4 ip_ratio=1.40 aq=1:1.00\n",
      "Output #0, mp4, to 'part_3_whole.mp4':\n",
      "  Metadata:\n",
      "    major_brand     : isom\n",
      "    minor_version   : 512\n",
      "    compatible_brands: isomiso2avc1mp41\n",
      "    encoder         : Lavf58.20.100\n",
      "    Stream #0:0(und): Video: h264 (libx264) (avc1 / 0x31637661), yuv420p, 256x256, q=-1--1, 10 fps, 10240 tbn, 10 tbc (default)\n",
      "    Metadata:\n",
      "      handler_name    : VideoHandler\n",
      "      encoder         : Lavc58.35.100 libx264\n",
      "    Side data:\n",
      "      cpb: bitrate max/min/avg: 0/0/0 buffer size: 0 vbv_delay: -1\n",
      "frame=   50 fps=0.0 q=-1.0 Lsize=      19kB time=00:00:04.70 bitrate=  33.9kbits/s speed=66.3x    \n",
      "video:18kB audio:0kB subtitle:0kB other streams:0kB global headers:0kB muxing overhead: 7.760532%\n",
      "\u001b[1;36m[libx264 @ 0x55e57eb76b80] \u001b[0mframe I:1     Avg QP:16.02  size:  3426\n",
      "\u001b[1;36m[libx264 @ 0x55e57eb76b80] \u001b[0mframe P:13    Avg QP:19.60  size:   704\n",
      "\u001b[1;36m[libx264 @ 0x55e57eb76b80] \u001b[0mframe B:36    Avg QP:21.94  size:   145\n",
      "\u001b[1;36m[libx264 @ 0x55e57eb76b80] \u001b[0mconsecutive B-frames:  4.0%  0.0%  0.0% 96.0%\n",
      "\u001b[1;36m[libx264 @ 0x55e57eb76b80] \u001b[0mmb I  I16..4:  5.5% 77.0% 17.6%\n",
      "\u001b[1;36m[libx264 @ 0x55e57eb76b80] \u001b[0mmb P  I16..4:  0.4%  1.0%  0.0%  P16..4: 19.6% 11.8%  6.1%  0.0%  0.0%    skip:61.0%\n",
      "\u001b[1;36m[libx264 @ 0x55e57eb76b80] \u001b[0mmb B  I16..4:  0.0%  0.1%  0.0%  B16..8: 24.6%  2.7%  0.2%  direct: 0.2%  skip:72.2%  L0:50.6% L1:45.0% BI: 4.3%\n",
      "\u001b[1;36m[libx264 @ 0x55e57eb76b80] \u001b[0m8x8 transform intra:76.7% inter:65.8%\n",
      "\u001b[1;36m[libx264 @ 0x55e57eb76b80] \u001b[0mcoded y,uvDC,uvAC intra: 27.8% 36.0% 30.6% inter: 4.0% 4.3% 0.1%\n",
      "\u001b[1;36m[libx264 @ 0x55e57eb76b80] \u001b[0mi16 v,h,dc,p: 46% 18% 32%  4%\n",
      "\u001b[1;36m[libx264 @ 0x55e57eb76b80] \u001b[0mi8 v,h,dc,ddl,ddr,vr,hd,vl,hu: 30% 24% 31%  3%  2%  3%  2%  3%  2%\n",
      "\u001b[1;36m[libx264 @ 0x55e57eb76b80] \u001b[0mi4 v,h,dc,ddl,ddr,vr,hd,vl,hu: 44%  7% 11%  5% 11% 11%  3%  6%  2%\n",
      "\u001b[1;36m[libx264 @ 0x55e57eb76b80] \u001b[0mi8c dc,h,v,p: 75%  5% 16%  4%\n",
      "\u001b[1;36m[libx264 @ 0x55e57eb76b80] \u001b[0mWeighted P-Frames: Y:0.0% UV:0.0%\n",
      "\u001b[1;36m[libx264 @ 0x55e57eb76b80] \u001b[0mref P L0: 58.7% 13.9% 19.9%  7.5%\n",
      "\u001b[1;36m[libx264 @ 0x55e57eb76b80] \u001b[0mref B L0: 82.1% 13.9%  4.0%\n",
      "\u001b[1;36m[libx264 @ 0x55e57eb76b80] \u001b[0mref B L1: 95.9%  4.1%\n",
      "\u001b[1;36m[libx264 @ 0x55e57eb76b80] \u001b[0mkb/s:28.51\n"
     ]
    }
   ],
   "source": [
    "# part 3\n",
    "!ffmpeg -i video_pipeline.mp4 -ss 00:00:10 -to 00:00:15 -async 1  part_3_whole.mp4 -y\n",
    "\n",
    "\n",
    "!ffmpeg -i part_3_whole.mp4 -vf colorbalance=rs=.3  -async 1 part_3_final.mp4\n",
    "\n"
   ]
  },
  {
   "cell_type": "code",
   "execution_count": 6,
   "metadata": {
    "Collapsed": "false"
   },
   "outputs": [],
   "source": [
    "# !rm part_1_whole.mp4 part_2_whole.mp4 part_3_whole.mp4 video_pipeline.mp4\n",
    "part_1_whole.mp4\n",
    "part_2_final.mp4\n",
    "part_3_final.mp4\n",
    "ffmpeg -i part_1_whole.mp4 -i part_2_final.mp4 -i part_3_final.mp4 \\\n",
    "-filter_complex \"[0:v:0][0:a:0][1:v:0][1:a:0][2:v:0][2:a:0]concat=n=3:v=1:a=1[outv][outa]\" \\\n",
    "-map \"[outv]\" -map \"[outa]\" output.mp4"
   ]
  }
 ],
 "metadata": {
  "kernelspec": {
   "display_name": "Python 3",
   "language": "python",
   "name": "python3"
  },
  "language_info": {
   "codemirror_mode": {
    "name": "ipython",
    "version": 3
   },
   "file_extension": ".py",
   "mimetype": "text/x-python",
   "name": "python",
   "nbconvert_exporter": "python",
   "pygments_lexer": "ipython3",
   "version": "3.7.6"
  }
 },
 "nbformat": 4,
 "nbformat_minor": 4
}
